<mxfile host="app.diagrams.net" modified="2023-01-03T21:24:10.674Z" agent="5.0 (X11)" version="20.8.0" etag="arGD-tO_PIh11W5epglh" type="github" pages="2">
  <diagram id="7zNDK23arRzc1YxvEAij" name="Page-1">
    <mxGraphModel dx="804" dy="614" grid="1" gridSize="10" guides="1" tooltips="1" connect="1" arrows="1" fold="1" page="0" pageScale="1" pageWidth="850" pageHeight="1100" math="0" shadow="0">
      <root>
        <mxCell id="0" />
        <mxCell id="1" parent="0" />
        <mxCell id="PjDHVibkdD0pz717Lirt-1" value="&lt;div&gt;IH&lt;/div&gt;&lt;div&gt;10.50.22.243&lt;br&gt;&lt;/div&gt;" style="whiteSpace=wrap;html=1;aspect=fixed;" vertex="1" parent="1">
          <mxGeometry x="160" y="640" width="80" height="80" as="geometry" />
        </mxCell>
        <mxCell id="HclEa4xDX47lZjebfP_8-1" value="&lt;div&gt;192.168.0.1/24&lt;br&gt;&lt;/div&gt;&lt;div&gt;Initial &lt;br&gt;&lt;/div&gt;&lt;div&gt;Pivot&lt;/div&gt;&lt;div&gt;22(f)&lt;br&gt;&lt;/div&gt;&lt;div&gt;23&lt;/div&gt;&lt;div&gt;80&lt;br&gt;&lt;/div&gt;" style="whiteSpace=wrap;html=1;aspect=fixed;" vertex="1" parent="1">
          <mxGeometry x="390" y="630" width="100" height="100" as="geometry" />
        </mxCell>
        <mxCell id="HclEa4xDX47lZjebfP_8-2" value="&lt;div&gt;&lt;u&gt;NET RECON METHODOLOGY&lt;/u&gt;&lt;/div&gt;&lt;div align=&quot;left&quot;&gt;&lt;font style=&quot;font-size: 10px;&quot;&gt;1. Host Discovery (ping sweep, scan.sg, nc)&lt;/font&gt;&lt;/div&gt;&lt;div align=&quot;left&quot;&gt;&lt;font style=&quot;font-size: 10px;&quot;&gt;&lt;span style=&quot;white-space: pre;&quot;&gt;	&lt;/span&gt;nmap -Pn 192.168.0.1 -p 21-23,80 -T4 | egrep -i &quot;scan report|open|succ&quot;&lt;br&gt;&lt;/font&gt;&lt;/div&gt;&lt;div align=&quot;left&quot;&gt;&lt;font style=&quot;font-size: 10px;&quot;&gt;&lt;span style=&quot;white-space: pre;&quot;&gt;	&lt;/span&gt;nmap -Pn 192.168.0.1,27,55 -p 21-23,80 -T4&lt;br&gt;&lt;/font&gt;&lt;/div&gt;&lt;div align=&quot;left&quot;&gt;&lt;font style=&quot;font-size: 10px;&quot;&gt;&lt;span style=&quot;white-space: pre;&quot;&gt;	&lt;/span&gt;nmap -Pn 192.168.0.1/24 -p 21-23,80 -T4&lt;br&gt;&lt;/font&gt;&lt;/div&gt;&lt;div align=&quot;left&quot;&gt;&lt;font style=&quot;font-size: 10px;&quot;&gt;&lt;span style=&quot;white-space: pre;&quot;&gt;	&lt;/span&gt;for i in {1..254} ;do (ping -c 192.168.1.$i 2&amp;gt;/dev/null | grep &quot;bytes from&quot; &amp;amp;) ;done&lt;/font&gt;&lt;/div&gt;&lt;div align=&quot;left&quot;&gt;&lt;font style=&quot;font-size: 10px;&quot;&gt;&lt;span style=&quot;white-space: pre;&quot;&gt;	&lt;/span&gt;./scan.sh&lt;/font&gt;&lt;/div&gt;&lt;div align=&quot;left&quot;&gt;&lt;font style=&quot;font-size: 10px;&quot;&gt;&lt;br&gt;&lt;/font&gt;&lt;/div&gt;&lt;div align=&quot;left&quot;&gt;&lt;font style=&quot;font-size: 10px;&quot;&gt;2. Port  discovery (nmap, nc, scan.sh)&lt;br&gt;&lt;/font&gt;&lt;/div&gt;&lt;div align=&quot;left&quot;&gt;&lt;font style=&quot;font-size: 10px;&quot;&gt;3. Port Validation (banner grab with nc)&lt;/font&gt;&lt;/div&gt;&lt;div align=&quot;left&quot;&gt;&lt;font style=&quot;font-size: 10px;&quot;&gt;&lt;span style=&quot;white-space: pre;&quot;&gt;	&lt;/span&gt;nc 192.168.0.1/ 22&lt;/font&gt;&lt;/div&gt;&lt;div align=&quot;left&quot;&gt;&lt;font style=&quot;font-size: 10px;&quot;&gt;4. Follow on actions based on ports found:&lt;/font&gt;&lt;/div&gt;&lt;div align=&quot;left&quot;&gt;&lt;font style=&quot;font-size: 10px;&quot;&gt;&lt;span style=&quot;white-space: pre;&quot;&gt;	&lt;/span&gt;4a. If 22 or 23, CONNECT TO IT and do PASSIVE RECON&lt;/font&gt;&lt;/div&gt;&lt;div align=&quot;left&quot;&gt;&lt;font style=&quot;font-size: 10px;&quot;&gt;&lt;span style=&quot;white-space: pre;&quot;&gt;	&lt;/span&gt;4b. If 21 or 80, PULL THE FILES (wget -r &amp;lt;IP ADDR&amp;gt;, wget -r http://ip_addr, wget -r ftp://ip_addr)&lt;br&gt;&lt;/font&gt;&lt;/div&gt;" style="text;html=1;align=center;verticalAlign=middle;resizable=0;points=[];autosize=1;strokeColor=none;fillColor=none;" vertex="1" parent="1">
          <mxGeometry y="160" width="480" height="220" as="geometry" />
        </mxCell>
        <mxCell id="HclEa4xDX47lZjebfP_8-6" value="&lt;div&gt;&lt;u&gt;SCAN METHODOLOGY&lt;/u&gt;&lt;/div&gt;&lt;div align=&quot;left&quot;&gt;&lt;font style=&quot;font-size: 10px;&quot;&gt;1. Quick Scan Ports: 21-23, 80&lt;br&gt;&lt;/font&gt;&lt;/div&gt;&lt;div align=&quot;left&quot;&gt;&lt;font style=&quot;font-size: 10px;&quot;&gt;2. Well Known Ports: 0-1023&lt;br&gt;&lt;/font&gt;&lt;/div&gt;&lt;div align=&quot;left&quot;&gt;&lt;font style=&quot;font-size: 10px;&quot;&gt;3. Chunks of 2000 (1024-3024)&lt;/font&gt;&lt;/div&gt;&lt;div align=&quot;left&quot;&gt;&lt;font style=&quot;font-size: 10px;&quot;&gt;4. First 10000 parts&lt;/font&gt;&lt;/div&gt;&lt;div align=&quot;left&quot;&gt;&lt;font style=&quot;font-size: 10px;&quot;&gt;5. Hail Mary (all the ports R belong to us)&lt;br&gt;&lt;/font&gt;&lt;/div&gt;" style="text;html=1;align=center;verticalAlign=middle;resizable=0;points=[];autosize=1;strokeColor=none;fillColor=none;" vertex="1" parent="1">
          <mxGeometry x="120" y="380" width="210" height="100" as="geometry" />
        </mxCell>
        <mxCell id="HclEa4xDX47lZjebfP_8-9" value="&lt;div&gt;&lt;u&gt;PASSIVE RECON METHODOLOGY&lt;/u&gt;&lt;/div&gt;&lt;div align=&quot;left&quot;&gt;&lt;font style=&quot;font-size: 10px;&quot;&gt;1. Hostname&lt;/font&gt;&lt;/div&gt;&lt;div align=&quot;left&quot;&gt;&lt;font style=&quot;font-size: 10px;&quot;&gt;2. Interfaces/subnets? ip a&lt;br&gt;&lt;/font&gt;&lt;/div&gt;&lt;div align=&quot;left&quot;&gt;&lt;font style=&quot;font-size: 10px;&quot;&gt;3. Neighbors? arp -a, ip neigh&lt;/font&gt;&lt;/div&gt;&lt;div align=&quot;left&quot;&gt;&lt;font style=&quot;font-size: 10px;&quot;&gt;4. Files of Interest? find, ls&lt;br&gt;&lt;/font&gt;&lt;/div&gt;&lt;div align=&quot;left&quot;&gt;&lt;font style=&quot;font-size: 10px;&quot;&gt;5. Other listening ports? netstat -nltp, ss -nltp&lt;/font&gt;&lt;/div&gt;&lt;div align=&quot;left&quot;&gt;&lt;font style=&quot;font-size: 10px;&quot;&gt;6. Available Tools? which tcpdump wireshark nmap nc telnet wget&lt;br&gt;&lt;/font&gt;&lt;/div&gt;" style="text;html=1;align=center;verticalAlign=middle;resizable=0;points=[];autosize=1;strokeColor=none;fillColor=none;" vertex="1" parent="1">
          <mxGeometry x="70" y="480" width="310" height="110" as="geometry" />
        </mxCell>
        <mxCell id="HclEa4xDX47lZjebfP_8-11" value="&lt;div&gt;@IH wget -r http://192.168.0.1&lt;/div&gt;&lt;div&gt;@IH ls (192.168.0.1)&lt;/div&gt;&lt;div&gt;@IH cd 192.168.0.1&lt;/div&gt;&lt;div&gt;ls&lt;/div&gt;&lt;div&gt;hint1.png&lt;/div&gt;&lt;div&gt;@IH: eom hint1.png&lt;/div&gt;&lt;div&gt;@IH telnet 192.168.0.1&lt;/div&gt;&lt;div&gt;@Initial Pivot: &lt;br&gt;&lt;/div&gt;&lt;div&gt;&lt;br&gt;&lt;/div&gt;" style="text;html=1;align=center;verticalAlign=middle;resizable=0;points=[];autosize=1;strokeColor=none;fillColor=none;fontSize=10;" vertex="1" parent="1">
          <mxGeometry x="120" y="725" width="160" height="120" as="geometry" />
        </mxCell>
      </root>
    </mxGraphModel>
  </diagram>
  <diagram id="u5nmb-pmG8p4cwbTZxRo" name="Page-2">
    <mxGraphModel dx="1407" dy="1074" grid="1" gridSize="10" guides="1" tooltips="1" connect="1" arrows="1" fold="1" page="1" pageScale="1" pageWidth="850" pageHeight="1100" math="0" shadow="0">
      <root>
        <mxCell id="0" />
        <mxCell id="1" parent="0" />
      </root>
    </mxGraphModel>
  </diagram>
</mxfile>
